# xmcd
#
# Track frame offsets: 
#        150
#        58103
#        90055
#        126900
#        161498
#
# Disc length: 2460 seconds
#
# Revision: 0
# Processed by: cddbd v1.5.2PL0 Copyright (c) Steve Scherf et al.
# Submitted via: ExactAudioCopy v0.99pb4
#
DISCID=34099a05
DTITLE=Leaves of Grass (Листья Трвавы) - Live 2009
DYEAR=2009
DGENRE=Blues
TTITLE0=Texas Flood
TTITLE1=On My Way
TTITLE2=Baby Baby
TTITLE3=I Don't Mind
TTITLE4=Love in This Town
EXTD=
EXTT0=
EXTT1=
EXTT2=
EXTT3=
EXTT4=
PLAYORDER=
